<svg width="181" height="181" viewBox="0 0 181 181" fill="none" xmlns="http://www.w3.org/2000/svg">
<path fill-rule="evenodd" clip-rule="evenodd" d="M61.4271 50.7638C55.7212 50.7638 51.4991 55.7579 51.6882 61.174C51.8696 66.3773 51.6339 73.1163 49.9374 78.612C48.2349 84.1232 45.3575 87.6156 40.6567 88.0638V93.1247C45.3575 93.574 48.2349 97.0646 49.9372 102.576C51.6339 108.072 51.8694 114.811 51.688 120.015C51.4989 125.43 55.721 130.425 61.4278 130.425H119.894C125.6 130.425 129.821 125.431 129.632 120.015C129.451 114.811 129.686 108.072 131.383 102.576C133.085 97.0646 135.956 93.5726 140.657 93.1247V88.0638C135.956 87.6146 133.086 84.1239 131.383 78.612C129.686 73.1171 129.451 66.3773 129.632 61.174C129.821 55.7587 125.6 50.7638 119.894 50.7638H61.4263H61.4271ZM108.453 99.8003C108.453 107.258 102.891 111.781 93.6593 111.781H77.9448C77.4953 111.781 77.0642 111.602 76.7463 111.284C76.4285 110.966 76.2499 110.535 76.2499 110.086V71.1029C76.2499 70.6533 76.4285 70.2222 76.7463 69.9044C77.0642 69.5865 77.4953 69.4079 77.9448 69.4079H93.5698C101.267 69.4079 106.319 73.5775 106.319 79.979C106.319 84.4722 102.921 88.4947 98.5911 89.1993V89.4337C104.485 90.0802 108.453 94.1622 108.453 99.8003ZM91.9458 74.7808H82.9856V87.437H90.5323C96.3663 87.437 99.5831 85.0878 99.5831 80.8888C99.5825 76.9536 96.8169 74.7808 91.9458 74.7808ZM82.9856 92.4587V106.406H92.2755C98.3497 106.406 101.567 103.969 101.567 99.3884C101.567 94.8079 98.2595 92.4579 91.8849 92.4579H82.9856V92.4587Z" fill="#7952B3"/>
</svg>
