<svg width="181" height="181" viewBox="0 0 181 181" fill="none" xmlns="http://www.w3.org/2000/svg">
<path d="M134.88 70.0079C134.879 68.331 134.52 66.8492 133.795 65.5775C133.083 64.3269 132.016 63.2787 130.585 62.45C118.772 55.6385 106.947 48.8479 95.1379 42.0295C91.9542 40.1915 88.8674 40.2585 85.7073 42.1229C81.0053 44.8959 57.4643 58.383 50.4493 62.4462C47.5604 64.1186 46.1546 66.678 46.1539 70.0048C46.1494 83.7031 46.1539 97.401 46.1494 111.1C46.1501 112.74 46.4935 114.193 47.1868 115.445C47.8996 116.734 48.9814 117.811 50.4455 118.658C57.4608 122.721 81.005 136.207 85.7059 138.981C88.8674 140.847 91.9542 140.913 95.139 139.075C106.949 132.256 118.774 125.465 130.589 118.654C132.053 117.807 133.134 116.729 133.847 115.442C134.54 114.189 134.884 112.736 134.884 111.096C134.884 111.096 134.884 83.7065 134.88 70.0079Z" fill="#5C8DBC"/>
<path d="M90.6526 90.4188L47.1868 115.445C47.8995 116.734 48.9814 117.811 50.4455 118.658C57.4607 122.721 81.0049 136.208 85.7059 138.981C88.8674 140.847 91.9542 140.913 95.139 139.075C106.949 132.256 118.774 125.466 130.589 118.654C132.053 117.807 133.135 116.729 133.847 115.442L90.6526 90.4188Z" fill="#1A4674"/>
<path d="M77.7786 97.8318C80.3078 102.247 85.0626 105.225 90.5169 105.225C96.0049 105.225 100.787 102.21 103.303 97.7468L90.6526 90.4188L77.7786 97.8318Z" fill="#1A4674"/>
<path d="M134.88 70.008C134.879 68.3311 134.52 66.8493 133.795 65.5775L90.6526 90.4188L133.847 115.442C134.54 114.189 134.884 112.736 134.884 111.096C134.884 111.096 134.884 83.7066 134.88 70.008Z" fill="#1B598E"/>
<path d="M132.505 92.2074H129.129V95.5835H125.753V92.2074H122.378V88.8324H125.753V85.4571H129.129V88.8324H132.505V92.2074ZM120.188 92.2074H116.813V95.5835H113.438V92.2074H110.062V88.8324H113.438V85.4571H116.813V88.8324H120.188V92.2074Z" fill="white"/>
<path d="M103.303 97.7469C100.787 102.21 96.0049 105.226 90.5169 105.226C85.0626 105.226 80.3078 102.247 77.7786 97.8319C76.508 95.6163 75.8407 93.1062 75.8433 90.5521C75.8433 82.4484 82.4132 75.8789 90.5169 75.8789C95.9361 75.8789 100.666 78.8199 103.208 83.1903L116.033 75.805C110.935 67.0051 101.418 61.0849 90.5169 61.0849C74.2421 61.0849 61.0493 74.278 61.0493 90.5521C61.0493 95.8911 62.4697 100.898 64.9521 105.217C70.037 114.063 79.5815 120.02 90.5169 120.02C101.472 120.02 111.032 114.039 116.109 105.167L103.303 97.7469Z" fill="white"/>
</svg>
