<svg width="181" height="181" viewBox="0 0 181 181" fill="none" xmlns="http://www.w3.org/2000/svg">
<path d="M77.4661 117.821C77.4661 117.821 73.6448 120.043 80.1857 120.795C88.1101 121.699 92.1598 121.569 100.892 119.917C100.892 119.917 103.188 121.356 106.395 122.603C86.8187 130.993 62.09 122.117 77.4661 117.821ZM75.074 106.872C75.074 106.872 70.788 110.045 77.3338 110.722C85.7987 111.595 92.4835 111.667 104.051 109.439C104.051 109.439 105.651 111.061 108.167 111.949C84.4981 118.87 58.1356 112.494 75.074 106.872Z" fill="white"/>
<path d="M95.2403 88.3005C100.064 93.8538 93.973 98.8511 93.973 98.8511C93.973 98.8511 106.221 92.5285 100.596 84.6109C95.3425 77.2277 91.3136 73.5588 113.123 60.9101C113.123 60.9101 78.8894 69.4601 95.2403 88.3002" fill="#E76F00"/>
<path d="M121.131 125.919C121.131 125.919 123.959 128.249 118.016 130.052C106.717 133.475 70.9867 134.508 61.0608 130.188C57.4929 128.636 64.184 126.482 66.2887 126.03C68.4836 125.554 69.7382 125.643 69.7382 125.643C65.7701 122.847 44.0903 131.131 58.726 133.503C98.6393 139.976 131.484 130.589 121.131 125.919ZM79.3036 95.5288C79.3036 95.5288 61.1291 99.8457 72.8678 101.413C77.824 102.077 87.7044 101.927 96.9079 101.155C104.429 100.521 111.982 99.172 111.982 99.172C111.982 99.172 109.33 100.308 107.411 101.618C88.9549 106.472 53.301 104.214 63.5653 99.2487C72.2459 95.0528 79.3039 95.5288 79.3039 95.5288H79.3036ZM111.907 113.753C130.669 104.003 121.994 94.6347 115.939 95.897C114.455 96.2057 113.794 96.4732 113.794 96.4732C113.794 96.4732 114.345 95.6104 115.397 95.2369C127.375 91.0256 136.587 107.657 111.53 114.244C111.53 114.244 111.82 113.985 111.907 113.753Z" fill="white"/>
<path d="M100.596 40.4854C100.596 40.4854 110.986 50.8797 90.7409 66.8624C74.5063 79.6836 87.0389 86.9938 90.7342 95.346C81.2577 86.796 74.3031 79.2692 78.9689 72.2642C85.8167 61.9808 104.788 56.9953 100.596 40.4851" fill="#E76F00"/>
<path d="M81.1474 140.171C99.1562 141.324 126.811 139.531 127.466 131.01C127.466 131.01 126.207 134.241 112.582 136.806C97.2114 139.698 78.2538 139.361 67.0096 137.507C67.0099 137.507 69.3115 139.412 81.1477 140.171" fill="white"/>
</svg>
