<svg width="181" height="180" viewBox="0 0 181 180" fill="none" xmlns="http://www.w3.org/2000/svg">
<path d="M46.5142 108.108C46.61 108.325 46.7183 108.525 46.835 108.725C46.8892 108.842 46.9642 108.963 47.0308 109.071C47.1392 109.288 47.2558 109.496 47.3683 109.704L48.0225 110.804C48.1433 111.009 48.26 111.209 48.3975 111.409C48.6267 111.8 48.8975 112.184 49.135 112.575C49.2434 112.738 49.3434 112.9 49.4642 113.063C49.9225 113.775 50.3392 114.367 50.785 114.942C51.1017 115.371 51.4184 115.792 51.7601 116.213C51.8726 116.371 51.9976 116.529 52.1142 116.688L53.0351 117.804C53.1476 117.934 53.2601 118.084 53.3809 118.217C53.7892 118.709 54.2226 119.184 54.6559 119.667C54.6559 119.675 54.6684 119.684 54.6768 119.696C55.2143 120.371 55.7934 120.971 56.4268 121.504L56.4434 121.521C56.7768 121.863 57.1101 122.2 57.4643 122.534L57.8851 122.938C58.3476 123.371 58.8101 123.8 59.2976 124.217C59.306 124.217 59.3101 124.225 59.3185 124.229L59.556 124.438C59.981 124.809 60.4101 125.175 60.8477 125.517L61.3685 125.954C61.7227 126.238 62.0893 126.504 62.4518 126.784L63.0185 127.217C63.406 127.509 63.8185 127.792 64.2144 128.075C64.3602 128.18 64.506 128.284 64.656 128.38L64.7769 128.475L65.9477 129.242L66.4477 129.575C67.0602 129.967 67.6686 130.334 68.2769 130.7C68.4519 130.788 68.6269 130.884 68.7894 130.984C69.2394 131.242 69.7061 131.505 70.1602 131.742C70.4103 131.884 70.6686 132.005 70.9269 132.134C71.2394 132.309 71.5644 132.48 71.8978 132.655C71.9894 132.684 72.0644 132.713 72.1394 132.755L72.1561 132.738C72.2936 132.8 72.4228 132.867 72.5561 132.934C73.0561 133.184 73.577 133.421 74.1186 133.655C74.2186 133.696 74.327 133.738 74.4353 133.796C75.0353 134.059 75.6353 134.309 76.2561 134.55C76.3978 134.592 76.5478 134.663 76.6937 134.717C77.2562 134.93 77.8353 135.146 78.4103 135.35L78.6187 135.425C79.2562 135.642 79.8854 135.85 80.5354 136.046C80.6854 136.088 80.8395 136.142 80.9979 136.184C81.6604 136.384 82.302 136.621 82.9729 136.746C125.778 144.509 138.215 111.138 138.215 111.138C127.765 124.679 109.219 128.25 91.6563 124.275C91.0063 124.125 90.3563 123.917 89.698 123.725C88.7687 123.462 87.8475 123.172 86.9354 122.854L87.3313 122.975L87.0729 122.875C86.5063 122.684 85.9604 122.471 85.4062 122.259C85.2706 122.201 85.133 122.148 84.9937 122.1L84.9479 122.088C84.3354 121.842 83.7396 121.592 83.1479 121.329C83.0187 121.288 82.9104 121.229 82.7812 121.179C82.0804 120.874 81.3858 120.555 80.6979 120.221L81.2729 120.475C81.1228 120.409 80.9755 120.337 80.8312 120.259C80.4395 120.075 80.0479 119.867 79.6645 119.671C79.3726 119.533 79.0849 119.385 78.802 119.229L78.8853 119.271C78.4145 119.021 77.9437 118.75 77.4687 118.496C77.327 118.396 77.1645 118.313 77.002 118.221C76.2959 117.811 75.5986 117.386 74.9103 116.946L75.1728 117.104C74.9964 116.995 74.8241 116.88 74.6561 116.759L74.6811 116.775C74.2333 116.5 73.7942 116.211 73.3644 115.909C73.2228 115.817 73.0936 115.717 72.9478 115.617C72.4989 115.31 72.0571 114.994 71.6228 114.667L71.7228 114.738C71.5478 114.596 71.3603 114.463 71.1728 114.325C70.8061 114.038 70.4353 113.763 70.0686 113.463L69.5769 113.071C69.0529 112.654 68.5389 112.225 68.0352 111.784L68.0311 111.779L66.5852 110.467L66.1685 110.075C65.8269 109.729 65.4769 109.4 65.1269 109.059L64.7227 108.642C64.2913 108.215 63.8703 107.777 63.4602 107.329L63.4352 107.3L63.3643 107.242C62.9232 106.757 62.4884 106.267 62.0602 105.771C61.9477 105.642 61.8435 105.504 61.7268 105.367L60.781 104.221C60.3546 103.685 59.9379 103.142 59.531 102.592L59.3643 102.358C49.6225 89.125 46.0975 70.8623 53.8934 55.8788L47.01 64.5831C38.1557 77.2457 39.2516 93.7125 46.0225 107.158C46.1767 107.488 46.3475 107.796 46.5142 108.108Z" fill="white"/>
<path d="M76.3353 89.8667L76.2894 89.8L76.2519 89.75L76.3353 89.8667Z" fill="black"/>
<path d="M80.9937 95.3332L81.3687 95.7082C81.8437 96.1665 82.3312 96.6124 82.827 97.0582L82.8895 97.1124C83.3895 97.554 83.952 98.0165 84.5312 98.4665L84.6187 98.5332C84.7604 98.6291 84.8812 98.7416 85.0187 98.8374C85.602 99.2874 86.1896 99.7166 86.8021 100.146L86.8646 100.183C87.1229 100.371 87.3979 100.542 87.6896 100.725C87.8062 100.8 87.9396 100.9 88.0646 100.975C88.5062 101.258 88.9396 101.521 89.3854 101.792C89.4562 101.821 89.5188 101.858 89.5854 101.887C89.9604 102.117 90.3688 102.337 90.7604 102.537C90.8979 102.621 91.0313 102.683 91.1729 102.762C91.4521 102.9 91.7271 103.046 91.9938 103.187L92.1271 103.246C92.6896 103.521 93.2646 103.779 93.8271 104.033C93.9688 104.087 94.0896 104.133 94.2105 104.192C94.673 104.392 95.1438 104.583 95.6063 104.758C95.8146 104.829 96.0105 104.912 96.2063 104.975C96.6313 105.133 97.0772 105.279 97.498 105.425L98.0813 105.612C98.6897 105.8 99.3063 106.046 99.9522 106.146C133.007 111.588 140.657 86.2664 140.657 86.2664C133.769 96.129 120.44 100.829 106.236 97.1582C105.527 96.9794 104.823 96.7779 104.127 96.554L104.365 96.6207C104.165 96.5665 103.99 96.504 103.798 96.4457C103.365 96.2957 102.919 96.1499 102.498 95.9957L101.898 95.7707C101.431 95.5832 100.956 95.4082 100.502 95.2082C100.361 95.1457 100.231 95.104 100.123 95.0415C99.5397 94.779 98.9522 94.5207 98.3813 94.2457L97.523 93.7998L97.0272 93.5498C96.6438 93.3498 96.2896 93.1415 95.923 92.929C95.8295 92.8851 95.739 92.835 95.6521 92.779L95.6646 92.7832C95.223 92.5082 94.7646 92.2415 94.3396 91.9623C94.198 91.8831 94.0688 91.7873 93.9355 91.704L93.0688 91.1415C92.4688 90.7248 91.8813 90.279 91.2854 89.8456C91.1521 89.7248 91.0229 89.6248 90.8938 89.5165C84.6479 84.6289 79.7228 77.9497 77.3853 70.3871C74.9228 62.5245 75.4644 53.7078 79.7187 46.5535L74.4894 53.9203C68.0685 63.0912 68.431 75.3497 73.4311 85.0497C74.3436 86.8414 75.2686 88.3539 76.2895 89.7956C77.2395 91.154 78.2895 92.7457 79.5562 93.8373C80.0062 94.3498 80.4895 94.8373 80.9937 95.3332Z" fill="white"/>
<path d="M97.598 45.9452C93.8105 51.4744 93.448 58.3411 96.0563 64.437C98.8272 70.9121 104.49 75.9955 111.09 78.4038C111.361 78.508 111.623 78.5955 111.902 78.6955L112.269 78.808C112.652 78.9288 113.04 79.0705 113.436 79.158C131.69 82.6622 136.632 69.8329 137.961 67.9454C133.615 74.1538 126.327 75.6455 117.386 73.483C116.608 73.2934 115.843 73.0568 115.094 72.7746L115.232 72.8204C114.3 72.4979 113.387 72.1223 112.498 71.6954L112.657 71.7663C110.948 70.9329 109.481 70.0329 108.119 68.9996C100.127 62.9578 95.1855 51.4536 100.402 42.0826L97.598 45.9452Z" fill="white"/>
</svg>
