<svg width="181" height="182" viewBox="0 0 181 182" fill="none" xmlns="http://www.w3.org/2000/svg">
<path d="M140.933 40.8911H91.1412L43.5954 90.8911H90.8454L91.0662 90.6661L140.933 40.8911Z" fill="url(#paint0_linear_301_8892)"/>
<path d="M140.933 140.891H40.9329H140.933ZM91.0662 90.6661L90.8454 90.8911H91.2912L91.0662 90.6661Z" fill="url(#paint1_linear_301_8892)"/>
<path d="M91.1412 40.8911H40.9329V93.6911V90.8911H43.5954L91.1412 40.8911Z" fill="url(#paint2_linear_301_8892)"/>
<path d="M90.8454 90.8911H43.5954L40.9329 93.6911V140.891L90.8454 90.8911Z" fill="url(#paint3_linear_301_8892)"/>
<path d="M91.2912 90.8911H90.8454L40.9329 140.891H140.933L91.2912 90.8911Z" fill="url(#paint4_linear_301_8892)"/>
<path d="M43.5954 90.8911H40.9329V93.6911L43.5954 90.8911Z" fill="url(#paint5_linear_301_8892)"/>
<defs>
<linearGradient id="paint0_linear_301_8892" x1="23.0849" y1="132.277" x2="116.14" y2="39.2221" gradientUnits="userSpaceOnUse">
<stop stop-color="#C757BC"/>
<stop offset="0.108" stop-color="#C757BC"/>
<stop offset="0.173" stop-color="#CD5CA9"/>
<stop offset="0.492" stop-color="#E8744F"/>
<stop offset="0.716" stop-color="#F88316"/>
<stop offset="0.823" stop-color="#FF8900"/>
<stop offset="1" stop-color="#FF8900"/>
</linearGradient>
<linearGradient id="paint1_linear_301_8892" x1="73.2368" y1="158.904" x2="118.594" y2="113.547" gradientUnits="userSpaceOnUse">
<stop stop-color="#00AFFF"/>
<stop offset="0.296" stop-color="#00AFFF"/>
<stop offset="0.694" stop-color="#5282FF"/>
<stop offset="1" stop-color="#945DFF"/>
</linearGradient>
<linearGradient id="paint2_linear_301_8892" x1="39.8782" y1="68.5273" x2="71.6965" y2="36.7082" gradientUnits="userSpaceOnUse">
<stop stop-color="#00AFFF"/>
<stop offset="0.296" stop-color="#00AFFF"/>
<stop offset="0.694" stop-color="#5282FF"/>
<stop offset="1" stop-color="#945DFF"/>
</linearGradient>
<linearGradient id="paint3_linear_301_8892" x1="23.6432" y1="132.836" x2="116.698" y2="39.7804" gradientUnits="userSpaceOnUse">
<stop stop-color="#AD4CA4"/>
<stop offset="0.108" stop-color="#AD4CA4"/>
<stop offset="0.173" stop-color="#B25093"/>
<stop offset="0.492" stop-color="#CA6545"/>
<stop offset="0.716" stop-color="#D87213"/>
<stop offset="0.823" stop-color="#DE7700"/>
<stop offset="1" stop-color="#DE7700"/>
</linearGradient>
<linearGradient id="paint4_linear_301_8892" x1="73.2368" y1="158.904" x2="118.594" y2="113.547" gradientUnits="userSpaceOnUse">
<stop stop-color="#0098DE"/>
<stop offset="0.296" stop-color="#0098DE"/>
<stop offset="0.694" stop-color="#4771DE"/>
<stop offset="1" stop-color="#8151DE"/>
</linearGradient>
<linearGradient id="paint5_linear_301_8892" x1="52.3831" y1="81.032" x2="84.2014" y2="49.2128" gradientUnits="userSpaceOnUse">
<stop stop-color="#0098DE"/>
<stop offset="0.296" stop-color="#0098DE"/>
<stop offset="0.694" stop-color="#4771DE"/>
<stop offset="1" stop-color="#8151DE"/>
</linearGradient>
</defs>
</svg>
