<svg width="181" height="182" viewBox="0 0 181 182" fill="none" xmlns="http://www.w3.org/2000/svg">
<path d="M90.4681 41.1511C65.0818 41.1511 66.6669 52.1601 66.6669 52.1601L66.6951 63.5658H90.9208V66.99H57.073C57.073 66.99 40.8284 65.1477 40.8284 90.7622C40.8284 116.378 55.0071 115.469 55.0071 115.469H63.4689V103.583C63.4689 103.583 63.0128 89.4039 77.4214 89.4039H101.449C101.449 89.4039 114.948 89.622 114.948 76.3572V54.4246C114.948 54.4246 116.999 41.1511 90.4681 41.1511ZM77.1101 48.8212C77.6825 48.8207 78.2495 48.9331 78.7785 49.1519C79.3075 49.3707 79.7881 49.6917 80.1929 50.0965C80.5977 50.5013 80.9187 50.982 81.1376 51.511C81.3564 52.0399 81.4688 52.6069 81.4683 53.1794C81.4688 53.7518 81.3564 54.3188 81.1376 54.8478C80.9187 55.3768 80.5977 55.8574 80.1929 56.2622C79.7881 56.667 79.3075 56.988 78.7785 57.2068C78.2495 57.4257 77.6825 57.538 77.1101 57.5375C76.5376 57.538 75.9707 57.4257 75.4417 57.2068C74.9127 56.988 74.432 56.667 74.0272 56.2622C73.6224 55.8574 73.3014 55.3768 73.0826 54.8478C72.8638 54.3188 72.7514 53.7518 72.7519 53.1794C72.7514 52.6069 72.8638 52.0399 73.0826 51.511C73.3014 50.982 73.6224 50.5013 74.0272 50.0965C74.432 49.6917 74.9127 49.3707 75.4417 49.1519C75.9707 48.9331 76.5376 48.8207 77.1101 48.8212Z" fill="url(#paint0_linear_301_8808)"/>
<path d="M91.1891 140.631C116.575 140.631 114.99 129.622 114.99 129.622L114.962 118.217H90.736V114.793H124.584C124.584 114.793 140.828 116.635 140.828 91.0196C140.828 65.4046 126.65 66.313 126.65 66.313H118.188V78.1992C118.188 78.1992 118.644 92.3779 104.235 92.3779H80.2079C80.2079 92.3779 66.7085 92.1598 66.7085 105.425V127.358C66.7085 127.358 64.6586 140.631 91.1887 140.631H91.1891ZM104.547 132.962C103.975 132.962 103.408 132.85 102.879 132.631C102.35 132.412 101.869 132.091 101.464 131.687C101.059 131.282 100.738 130.801 100.52 130.272C100.301 129.743 100.188 129.176 100.189 128.604C100.188 128.031 100.301 127.464 100.519 126.935C100.738 126.406 101.059 125.925 101.464 125.521C101.869 125.116 102.35 124.795 102.879 124.576C103.408 124.357 103.975 124.245 104.547 124.245C105.12 124.245 105.686 124.357 106.215 124.576C106.744 124.795 107.225 125.116 107.63 125.52C108.035 125.925 108.356 126.406 108.575 126.935C108.793 127.464 108.906 128.031 108.905 128.603C108.906 129.176 108.793 129.743 108.575 130.272C108.356 130.801 108.035 131.281 107.63 131.686C107.225 132.091 106.744 132.412 106.215 132.631C105.686 132.85 105.12 132.962 104.547 132.961V132.962Z" fill="url(#paint1_linear_301_8808)"/>
<defs>
<linearGradient id="paint0_linear_301_8808" x1="50.4383" y1="50.0987" x2="99.9952" y2="99.1613" gradientUnits="userSpaceOnUse">
<stop stop-color="#387EB8"/>
<stop offset="1" stop-color="#366994"/>
</linearGradient>
<linearGradient id="paint1_linear_301_8808" x1="80.8564" y1="81.6038" x2="134.075" y2="131.913" gradientUnits="userSpaceOnUse">
<stop stop-color="#FFE052"/>
<stop offset="1" stop-color="#FFC331"/>
</linearGradient>
</defs>
</svg>
