<svg width="182" height="181" viewBox="0 0 182 181" fill="none" xmlns="http://www.w3.org/2000/svg">
<path d="M127.212 95.9112C123.724 95.9295 120.692 96.7697 118.153 98.0118C117.221 96.167 116.29 94.5231 116.125 93.3176C115.943 91.9111 115.723 91.0527 115.943 89.3722C116.162 87.6918 117.148 85.2991 117.13 85.1164C117.112 84.9337 116.911 84.0753 114.901 84.057C112.892 84.0387 111.157 84.4406 110.956 84.9703C110.755 85.5 110.372 86.7055 110.116 87.9475C109.769 89.7741 106.098 96.2948 103.997 99.7104C103.321 98.3771 102.737 97.2081 102.609 96.2766C102.426 94.8701 102.207 94.0116 102.426 92.3312C102.645 90.6508 103.632 88.258 103.613 88.0754C103.595 87.8927 103.394 87.0343 101.385 87.016C99.3759 86.9977 97.6407 87.3996 97.4397 87.9293C97.2388 88.459 97.0196 89.701 96.5995 90.9065C96.1794 92.112 91.3026 102.998 90.024 105.811C89.3664 107.254 88.8002 108.405 88.3984 109.19C88.3984 109.19 88.3801 109.245 88.3253 109.336C87.9783 110.012 87.7773 110.377 87.7773 110.377C87.7773 110.377 87.7773 110.377 87.7773 110.396C87.5034 110.889 87.2111 111.345 87.065 111.345C86.9554 111.345 86.7545 110.03 87.1015 108.24C87.8321 104.459 89.5674 98.578 89.5491 98.3771C89.5491 98.2675 89.8779 97.2446 88.4166 96.7149C86.9919 96.1852 86.4805 97.062 86.3526 97.062C86.2248 97.062 86.1335 97.3725 86.1335 97.3725C86.1335 97.3725 87.7225 90.7604 83.1014 90.7604C80.2155 90.7604 76.2336 93.9203 74.261 96.7697C73.0189 97.4455 70.3704 98.8885 67.5393 100.441C66.4616 101.044 65.3475 101.647 64.3063 102.213C64.2333 102.14 64.1602 102.048 64.0871 101.975C58.4979 96.0026 48.1597 91.7833 48.5981 83.7648C48.7625 80.8423 49.7671 73.1708 68.4526 63.8555C83.832 56.2754 96.0698 58.3759 98.1886 63.0335C101.221 69.6821 91.6313 82.0295 75.7405 83.8196C69.6763 84.4954 66.4982 82.1574 65.6945 81.2807C64.8543 80.3674 64.7264 80.3126 64.4159 80.4953C63.9045 80.7692 64.2333 81.5912 64.4159 82.0661C64.8908 83.3081 66.8452 85.5 70.1512 86.5776C73.0737 87.5274 80.1789 88.0571 88.7819 84.7328C98.4078 81.0067 105.933 70.6502 103.723 61.9742C101.513 53.1702 86.9006 50.266 73.0737 55.1794C64.8543 58.1019 55.9408 62.7048 49.5296 68.6958C41.913 75.8193 40.7074 82.0113 41.2006 84.605C42.9724 93.8107 55.6668 99.8018 60.7446 104.24C60.4889 104.386 60.2514 104.514 60.0505 104.624C57.5116 105.884 47.8309 110.944 45.4199 116.295C42.6801 122.36 45.8583 126.707 47.9588 127.291C54.4795 129.099 61.1829 125.848 64.7812 120.478C68.3795 115.108 67.9411 108.131 66.279 104.934C66.2607 104.898 66.2425 104.861 66.2059 104.825C66.8635 104.441 67.5393 104.039 68.1968 103.656C69.4937 102.889 70.7723 102.176 71.8682 101.592C71.2472 103.29 70.7905 105.318 70.5714 108.24C70.2974 111.674 71.7038 116.131 73.5486 117.884C74.3706 118.652 75.3386 118.67 75.9596 118.67C78.115 118.67 79.083 116.88 80.1607 114.761C81.4758 112.167 82.663 109.154 82.663 109.154C82.663 109.154 81.1835 117.3 85.2019 117.3C86.6632 117.3 88.1427 115.4 88.8002 114.432C88.8002 114.451 88.8002 114.451 88.8002 114.451C88.8002 114.451 88.8367 114.396 88.9098 114.268C89.0559 114.031 89.1473 113.884 89.1473 113.884C89.1473 113.884 89.1473 113.866 89.1473 113.848C89.7317 112.825 91.0469 110.505 93.0012 106.651C95.5219 101.683 97.9512 95.4729 97.9512 95.4729C97.9512 95.4729 98.1703 96.9889 98.9192 99.5095C99.3576 100.989 100.271 102.615 101.001 104.185C100.417 105.007 100.052 105.464 100.052 105.464C100.052 105.464 100.052 105.464 100.07 105.482C99.5951 106.103 99.0836 106.779 98.5174 107.437C96.5265 109.811 94.152 112.533 93.8232 113.318C93.4396 114.25 93.5309 114.926 94.2616 115.473C94.7913 115.875 95.7411 115.93 96.7091 115.875C98.4991 115.747 99.7594 115.309 100.38 115.035C101.349 114.688 102.481 114.158 103.54 113.373C105.495 111.93 106.682 109.866 106.572 107.144C106.518 105.647 106.024 104.149 105.422 102.742C105.604 102.487 105.769 102.231 105.951 101.975C109.038 97.4638 111.431 92.5139 111.431 92.5139C111.431 92.5139 111.65 94.0299 112.399 96.5505C112.764 97.8291 113.513 99.2173 114.171 100.569C111.267 102.925 109.477 105.665 108.837 107.455C107.687 110.779 108.582 112.277 110.28 112.624C111.047 112.788 112.143 112.423 112.947 112.076C113.97 111.747 115.175 111.181 116.326 110.341C118.281 108.898 120.162 106.889 120.052 104.167C119.997 102.925 119.669 101.701 119.212 100.514C121.678 99.4913 124.856 98.925 128.911 99.3999C137.605 100.423 139.322 105.848 138.993 108.131C138.665 110.414 136.838 111.656 136.235 112.04C135.633 112.423 135.432 112.551 135.487 112.825C135.56 113.227 135.852 113.209 136.363 113.135C137.076 113.008 140.93 111.291 141.094 107.09C141.368 101.72 136.254 95.8564 127.212 95.9112ZM60.1418 118.524C57.2559 121.665 53.2375 122.853 51.5023 121.848C49.6392 120.77 50.3698 116.131 53.9133 112.807C56.0686 110.779 58.845 108.898 60.6898 107.747C61.1099 107.491 61.7309 107.126 62.4798 106.67C62.6076 106.596 62.6807 106.56 62.6807 106.56C62.8268 106.469 62.9729 106.377 63.1191 106.286C64.4159 111.035 63.1739 115.218 60.1418 118.524ZM81.147 104.24C80.1424 106.688 78.0419 112.953 76.7633 112.606C75.6674 112.314 74.9916 107.565 76.5441 102.87C77.3295 100.514 78.9917 97.7013 79.9598 96.6053C81.5306 94.8518 83.2658 94.2674 83.6859 94.9797C84.2156 95.9112 81.768 102.706 81.147 104.24ZM98.4809 112.533C98.0608 112.752 97.6589 112.898 97.4763 112.788C97.3484 112.715 97.6589 112.423 97.6589 112.423C97.6589 112.423 99.8325 110.085 100.691 109.026C101.184 108.405 101.769 107.674 102.39 106.852C102.39 106.925 102.39 107.017 102.39 107.09C102.39 109.884 99.6864 111.766 98.4809 112.533ZM111.851 109.482C111.541 109.263 111.595 108.533 112.637 106.249C113.038 105.354 113.988 103.857 115.614 102.414C115.796 102.998 115.924 103.564 115.906 104.094C115.888 107.619 113.367 108.934 111.851 109.482Z" fill="#CD6799"/>
</svg>
